# xmcd
#
# Track frame offsets: 
#        150
#        19362
#        41312
#        57942
#        79647
#        101485
#        120905
#        138580
#        161517
#        182875
#        197482
#        217585
#
# Disc length: 3187 seconds
#
# Revision: 15
# Processed by: cddbd v1.5.2PL0 Copyright (c) Steve Scherf et al.
# Submitted via: ExactAudioCopy v1.3
#
DISCID=930c710c
DTITLE=Emmylou Harris - Wrecking Ball
DYEAR=1995
DGENRE=Country
TTITLE0=Where Will I Be
TTITLE1=Goodbye
TTITLE2=All My Tears (Be Washed Away)
TTITLE3=Wrecking Ball
TTITLE4=Going Back to Harlan
TTITLE5=Deeper Well
TTITLE6=Every Grain of Sand
TTITLE7=Sweet Old World
TTITLE8=May This Be Love
TTITLE9=Orphan Girl
TTITLE10=Blackhawk
TTITLE11=Waltz Across Texas Tonight
EXTD=
EXTT0=
EXTT1=
EXTT2=
EXTT3=
EXTT4=
EXTT5=
EXTT6=
EXTT7=
EXTT8=
EXTT9=
EXTT10=
EXTT11=
PLAYORDER=
